<svg width="45" height="45" viewBox="0 0 45 45" fill="none" xmlns="http://www.w3.org/2000/svg">
<path d="M22.5 39.375L19.7813 36.9375C16.625 34.0938 14.0156 31.6406 11.9531 29.5781C9.89062 27.5156 8.25 25.6719 7.03125 24.0469C5.8125 22.3906 4.95313 20.875 4.45312 19.5C3.98438 18.125 3.75 16.7188 3.75 15.2813C3.75 12.3438 4.73438 9.89063 6.70313 7.92188C8.67188 5.95313 11.125 4.96875 14.0625 4.96875C15.6875 4.96875 17.2344 5.3125 18.7031 6C20.1719 6.6875 21.4375 7.65625 22.5 8.90625C23.5625 7.65625 24.8281 6.6875 26.2969 6C27.7656 5.3125 29.3125 4.96875 30.9375 4.96875C33.875 4.96875 36.3281 5.95313 38.2969 7.92188C40.2656 9.89063 41.25 12.3438 41.25 15.2813C41.25 16.7188 41 18.125 40.5 19.5C40.0312 20.875 39.1875 22.3906 37.9688 24.0469C36.75 25.6719 35.1094 27.5156 33.0469 29.5781C30.9844 31.6406 28.375 34.0938 25.2188 36.9375L22.5 39.375ZM22.5 34.3125C25.5 31.625 27.9688 29.3281 29.9063 27.4219C31.8438 25.4844 33.375 23.8125 34.5 22.4063C35.625 20.9688 36.4063 19.7031 36.8438 18.6094C37.2813 17.4844 37.5 16.375 37.5 15.2813C37.5 13.4063 36.875 11.8438 35.625 10.5938C34.375 9.34375 32.8125 8.71875 30.9375 8.71875C29.4688 8.71875 28.1094 9.14063 26.8594 9.98438C25.6094 10.7969 24.75 11.8438 24.2813 13.125H20.7188C20.25 11.8438 19.3906 10.7969 18.1406 9.98438C16.8906 9.14063 15.5313 8.71875 14.0625 8.71875C12.1875 8.71875 10.625 9.34375 9.375 10.5938C8.125 11.8438 7.5 13.4063 7.5 15.2813C7.5 16.375 7.71875 17.4844 8.15625 18.6094C8.59375 19.7031 9.375 20.9688 10.5 22.4063C11.625 23.8125 13.1562 25.4844 15.0938 27.4219C17.0313 29.3281 19.5 31.625 22.5 34.3125Z" fill="black"/>
</svg>
