<svg id="favoriteIcon" xmlns="http://www.w3.org/2000/svg" width="45" height="45" viewBox="0 0 45 45" fill="none">
<path d="M22.5 39.375L19.7813 36.9375C16.625 34.0938 14.0156 31.6406 11.9531 29.5781C9.89062 27.5156 8.25 25.6719 7.03125 24.0469C5.8125 22.3906 4.95313 20.875 4.45312 19.5C3.98438 18.125 3.75 16.7188 3.75 15.2813C3.75 12.3438 4.73438 9.89063 6.70313 7.92188C8.67188 5.95313 11.125 4.96875 14.0625 4.96875C15.6875 4.96875 17.2344 5.3125 18.7031 6C20.1719 6.6875 21.4375 7.65625 22.5 8.90625C23.5625 7.65625 24.8281 6.6875 26.2969 6C27.7656 5.3125 29.3125 4.96875 30.9375 4.96875C33.875 4.96875 36.3281 5.95313 38.2969 7.92188C40.2656 9.89063 41.25 12.3438 41.25 15.2813C41.25 16.7188 41 18.125 40.5 19.5C40.0312 20.875 39.1875 22.3906 37.9688 24.0469C36.75 25.6719 35.1094 27.5156 33.0469 29.5781C30.9844 31.6406 28.375 34.0938 25.2188 36.9375L22.5 39.375Z" fill="#3A3B3C"/>
</svg>
