<svg width="70" height="80" viewBox="0 0 70 80" fill="none" xmlns="http://www.w3.org/2000/svg">
<path fill-rule="evenodd" clip-rule="evenodd" d="M40.5794 1.77451C42.1253 0.757829 44.0557 0.665405 45.6812 1.53025C57.9157 8.0396 63.8605 19.4072 66.7309 30.0973C69.5551 40.6153 69.5546 51.0172 69.5546 56.6084V56.7395C69.5546 58.2192 69.0019 59.6388 68.0187 60.685C67.0355 61.7312 65.7015 62.3193 64.3109 62.3193H48.5798V73.479C48.5798 76.5607 46.2321 79.0588 43.3361 79.0588C40.4401 79.0588 38.0924 76.5607 38.0924 73.479V6.52099C38.0924 4.58715 39.0334 2.79119 40.5794 1.77451ZM4.0084 2.33612C6.18039 2.33612 7.94117 4.20975 7.94117 6.52099V20.4706C7.94117 23.0603 8.90795 25.544 10.6289 27.3753C11.3787 28.1731 12.2448 28.8186 13.1849 29.2931V6.52099C13.1849 4.20975 14.9456 2.33612 17.1176 2.33612C19.2896 2.33612 21.0504 4.20975 21.0504 6.52099V29.2931C21.9982 28.8147 22.863 28.1663 23.6064 27.3753C24.4585 26.4685 25.1344 25.3921 25.5956 24.2074C26.0567 23.0227 26.2941 21.7529 26.2941 20.4706V6.52099C26.2941 4.20975 28.0549 2.33612 30.2269 2.33612C32.3989 2.33612 34.1597 4.20975 34.1597 6.52099V20.4706C34.1597 22.852 33.7189 25.2101 32.8624 27.4103C32.006 29.6105 30.7507 31.6096 29.1682 33.2936C27.5857 34.9775 25.707 36.3133 23.6393 37.2246C23.2191 37.4098 22.7927 37.5768 22.3613 37.7253V73.479C22.3613 76.5607 20.0136 79.0588 17.1176 79.0588C14.2217 79.0588 11.8739 76.5607 11.8739 73.479V37.7253C9.33075 36.8501 6.99232 35.3422 5.0671 33.2936C1.87112 29.8927 0.0756226 25.2801 0.0756226 20.4706V6.52099C0.0756226 4.20975 1.83638 2.33612 4.0084 2.33612Z" fill="#EEEEEE"/>
</svg>
