<svg width="75" height="80" viewBox="0 0 75 80" fill="none" xmlns="http://www.w3.org/2000/svg">
<g clip-path="url(#clip0_22_15)">
<path fill-rule="evenodd" clip-rule="evenodd" d="M42.5794 1.77451C44.1253 0.757829 46.0557 0.665405 47.6812 1.53025C59.9157 8.0396 65.8605 19.4072 68.7309 30.0973C71.5551 40.6153 71.5546 51.0172 71.5546 56.6084V56.7395C71.5546 58.2192 71.0019 59.6388 70.0187 60.685C69.0355 61.7312 67.7015 62.3193 66.3109 62.3193H50.5798V73.479C50.5798 76.5607 48.2321 79.0588 45.3361 79.0588C42.4401 79.0588 40.0924 76.5607 40.0924 73.479V6.52099C40.0924 4.58715 41.0334 2.79119 42.5794 1.77451ZM6.0084 2.33612C8.18039 2.33612 9.94117 4.20975 9.94117 6.52099V20.4706C9.94117 23.0603 10.9079 25.544 12.6289 27.3753C13.3787 28.1731 14.2448 28.8186 15.1849 29.2931V6.52099C15.1849 4.20975 16.9456 2.33612 19.1176 2.33612C21.2896 2.33612 23.0504 4.20975 23.0504 6.52099V29.2931C23.9982 28.8147 24.863 28.1663 25.6064 27.3753C26.4585 26.4685 27.1344 25.3921 27.5956 24.2074C28.0567 23.0227 28.2941 21.7529 28.2941 20.4706V6.52099C28.2941 4.20975 30.0549 2.33612 32.2269 2.33612C34.3989 2.33612 36.1597 4.20975 36.1597 6.52099V20.4706C36.1597 22.852 35.7189 25.2101 34.8624 27.4103C34.006 29.6105 32.7507 31.6096 31.1682 33.2936C29.5857 34.9775 27.707 36.3133 25.6393 37.2246C25.2191 37.4098 24.7927 37.5768 24.3613 37.7253V73.479C24.3613 76.5607 22.0136 79.0588 19.1176 79.0588C16.2217 79.0588 13.8739 76.5607 13.8739 73.479V37.7253C11.3307 36.8501 8.99232 35.3422 7.0671 33.2936C3.87112 29.8927 2.07562 25.2801 2.07562 20.4706V6.52099C2.07562 4.20975 3.83638 2.33612 6.0084 2.33612Z" fill="white"/>
</g>
<defs>
<clipPath id="clip0_22_15">
<rect width="73.4118" height="78.1176" fill="white" transform="translate(0.764709 0.941162)"/>
</clipPath>
</defs>
</svg>
